<svg width="30" height="34" viewBox="0 0 30 34" fill="none" xmlns="http://www.w3.org/2000/svg">
<mask id="mask0_8_5207" style="mask-type:alpha" maskUnits="userSpaceOnUse" x="0" y="0" width="30" height="34">
<path d="M12.0589 1.44621C13.8053 0.437935 15.9569 0.437934 17.7033 1.44621L26.94 6.77901C28.6864 7.78728 29.7622 9.65065 29.7622 11.6672V22.3328C29.7622 24.3494 28.6864 26.2127 26.94 27.221L17.7033 32.5538C15.9569 33.5621 13.8053 33.5621 12.0589 32.5538L2.8222 27.221C1.07582 26.2127 0 24.3494 0 22.3328V11.6672C0 9.65065 1.07582 7.78729 2.8222 6.77901L12.0589 1.44621Z" fill="#C4C4C4"/>
</mask>
<g mask="url(#mask0_8_5207)">
<path d="M14.877 -0.46405L31.1888 8.95359L22.9339 13.3983L19.5242 11.5385L16.4244 11.8485L8.67499 9.05867L6.81512 11.5385L5.88519 12.7784L4.02533 11.5385L-1.43487 8.95359L14.877 -0.46405Z" fill="url(#paint0_linear_8_5207)"/>
<path d="M-0.128418 9.08696L6.19948 12.1555L9.9192 21.1449L9.9192 21.4549L11.1591 23.0048L16.7387 27.3444L14.8807 35.0835L-0.128418 26.418L-0.128418 9.08696Z" fill="url(#paint1_linear_8_5207)"/>
<path d="M19.8341 21.4544L23.8638 12.775L29.886 9.0888L29.886 26.4198L14.8769 35.0854L14.5645 27.3439L19.8341 21.4544Z" fill="url(#paint2_linear_8_5207)"/>
<path d="M14.8763 6.58276C12.3115 6.58276 9.9741 7.55624 8.21323 9.15384L9.6428 21.4616C10.0337 21.642 12.2759 22.3916 12.7065 22.3916H15.8062C16.3541 22.3916 20.1459 21.2238 20.1459 21.7716L19.8359 20.4696C19.8359 21.0175 19.3919 21.4616 18.844 21.4616H10.9086C10.3608 21.4616 9.91667 21.0175 9.91667 20.4696V15.6676C9.91667 15.237 9.82323 14.8116 9.6428 14.4206L8.21323 9.15384C6.61563 10.9146 4.95703 13.9372 4.95703 16.502C4.95703 21.9804 9.39799 26.4213 14.8763 26.4213C20.3546 26.4213 24.7956 21.9804 24.7956 16.502C24.7956 11.0237 20.3546 6.58276 14.8763 6.58276Z" fill="url(#paint3_linear_8_5207)"/>
<path d="M13.0393 10.7229C13.2583 10.6384 13.4926 10.6052 13.7246 10.6259C13.9565 10.6465 14.18 10.7205 14.3781 10.8422C14.5761 10.9639 14.7436 11.1301 14.8678 11.3282C14.9921 11.5263 15.0697 11.7512 15.095 11.9857C15.2751 13.6756 14.8956 15.3867 14.016 16.8503C13.1364 18.314 11.8066 19.4474 10.2352 20.0726L9.1231 17.1972C10.0618 16.8234 10.8568 16.1474 11.3846 15.2744C11.9124 14.4014 12.1433 13.3804 12.0415 12.3701C12.0044 12.0251 12.0821 11.6757 12.2624 11.3773C12.4427 11.0789 12.7152 10.8486 13.0367 10.7228L13.0393 10.7229Z" fill="#9C5AFF"/>
<path d="M13.0268 10.7276C12.6469 10.8789 12.3397 11.1761 12.1726 11.5538C12.0055 11.9315 11.9922 12.3587 12.1357 12.7416L15.3857 21.4085C15.5294 21.7913 15.818 22.0984 16.1882 22.2621C16.5583 22.4259 16.9797 22.433 17.3596 22.2819C17.5478 22.207 17.7201 22.0956 17.8667 21.9538C18.0134 21.8121 18.1315 21.6429 18.2142 21.4558C18.297 21.2688 18.3428 21.0676 18.3491 20.8637C18.3553 20.6599 18.3219 20.4574 18.2508 20.2678L15.0007 11.601C14.9297 11.4113 14.8223 11.2383 14.6846 11.0918C14.5469 10.9452 14.3817 10.828 14.1984 10.7469C14.0151 10.6658 13.8173 10.6224 13.6163 10.619C13.4152 10.6157 13.2149 10.6526 13.0268 10.7276Z" fill="#9C5AFF"/>
<path d="M17.3452 22.2842C17.1263 22.3687 16.892 22.402 16.6601 22.3814C16.4282 22.3607 16.2047 22.2868 16.0067 22.1652C15.8086 22.0436 15.6411 21.8774 15.5169 21.6793C15.3927 21.4813 15.315 21.2565 15.2897 21.022C15.1098 19.332 15.4894 17.621 16.3689 16.1573C17.2484 14.6936 18.5781 13.56 20.1493 12.9344L21.2614 15.8109C20.3228 16.1848 19.5277 16.8608 18.9999 17.7338C18.4722 18.6067 18.2412 19.6278 18.3431 20.6381C18.3796 20.9832 18.3013 21.3325 18.1206 21.6307C17.9398 21.9289 17.6669 22.1588 17.3452 22.2842Z" fill="#9C5AFF"/>
</g>
<defs>
<linearGradient id="paint0_linear_8_5207" x1="14.5646" y1="0.99926" x2="14.282" y2="12.3216" gradientUnits="userSpaceOnUse">
<stop stop-color="#4E00D3"/>
<stop offset="1" stop-color="#7A36F0"/>
</linearGradient>
<linearGradient id="paint1_linear_8_5207" x1="14.8788" y1="23.9347" x2="5.90321" y2="13.173" gradientUnits="userSpaceOnUse">
<stop stop-color="#5508D8"/>
<stop offset="1" stop-color="#7935EF"/>
</linearGradient>
<linearGradient id="paint2_linear_8_5207" x1="14.8744" y1="25.1741" x2="23.4474" y2="13.715" gradientUnits="userSpaceOnUse">
<stop stop-color="#5205D6"/>
<stop offset="1" stop-color="#7A35F0"/>
</linearGradient>
<linearGradient id="paint3_linear_8_5207" x1="14.8763" y1="6.58276" x2="14.8763" y2="26.4213" gradientUnits="userSpaceOnUse">
<stop stop-color="#7935EF"/>
<stop offset="1" stop-color="#6117E0"/>
</linearGradient>
</defs>
</svg>
